<svg width="32" height="26" viewBox="0 0 32 26" fill="none" xmlns="http://www.w3.org/2000/svg">
<g clip-path="url(#clip0_1_29)">
<path d="M8.89081 20.4141H23.2652C23.6219 20.4141 23.936 20.1778 24.0318 19.8287L27.2261 8.54946C27.2953 8.30777 27.2474 8.04458 27.0983 7.84048C26.9493 7.63638 26.7097 7.51822 26.4595 7.51822H6.94229L6.37264 4.92401C6.28745 4.56415 5.9627 4.30096 5.59003 4.30096H0.798576C0.356697 4.30096 0 4.66082 0 5.10662C0 5.55242 0.356697 5.91228 0.798576 5.91228H4.95117C5.05232 6.37419 7.68762 18.314 7.83669 19.0015C8.06029 20.065 8.55009 20.4141 8.89081 20.4141ZM25.2936 9.19399L22.5891 18.7437H9.50838L7.40546 9.19399H25.2936Z" fill="#575757"/>
<path d="M21.5933 25.6885C22.7665 25.6885 23.7176 24.729 23.7176 23.5454C23.7176 22.3618 22.7665 21.4024 21.5933 21.4024C20.4202 21.4024 19.4691 22.3618 19.4691 23.5454C19.4691 24.729 20.4202 25.6885 21.5933 25.6885Z" fill="#575757"/>
<path d="M10.5891 25.6885C11.7623 25.6885 12.7133 24.729 12.7133 23.5454C12.7133 22.3618 11.7623 21.4024 10.5891 21.4024C9.41595 21.4024 8.4649 22.3618 8.4649 23.5454C8.4649 24.729 9.41595 25.6885 10.5891 25.6885Z" fill="#575757"/>
</g>
<ellipse cx="25.1613" cy="6.70968" rx="6.70968" ry="6.70968" fill="#CC3872"/>
<path d="M27.5338 9.752C28.0138 9.752 28.2538 9.956 28.2538 10.364C28.2538 10.788 28.0138 11 27.5338 11H22.9738C22.7658 11 22.6018 10.94 22.4818 10.82C22.3618 10.692 22.3018 10.536 22.3018 10.352C22.3018 10.112 22.3938 9.896 22.5778 9.704L25.3138 6.764C25.6498 6.396 25.8938 6.06 26.0458 5.756C26.2058 5.444 26.2858 5.136 26.2858 4.832C26.2858 4.456 26.1778 4.168 25.9618 3.968C25.7458 3.768 25.4378 3.668 25.0378 3.668C24.7098 3.668 24.3898 3.732 24.0778 3.86C23.7738 3.98 23.4658 4.148 23.1538 4.364C23.0738 4.42 22.9938 4.468 22.9138 4.508C22.8338 4.54 22.7538 4.556 22.6738 4.556C22.5378 4.556 22.4178 4.492 22.3138 4.364C22.2178 4.236 22.1698 4.084 22.1698 3.908C22.1698 3.788 22.1898 3.684 22.2298 3.596C22.2778 3.508 22.3498 3.424 22.4458 3.344C22.7978 3.064 23.2098 2.844 23.6818 2.684C24.1538 2.516 24.6258 2.432 25.0978 2.432C25.9218 2.432 26.5778 2.64 27.0658 3.056C27.5618 3.472 27.8098 4.032 27.8098 4.736C27.8098 5.224 27.7058 5.684 27.4978 6.116C27.2898 6.54 26.9378 7.016 26.4418 7.544L24.3658 9.752H27.5338Z" fill="white"/>
<defs>
<clipPath id="clip0_1_29">
<rect width="27.2581" height="21.8065" fill="white" transform="translate(0 4.19354)"/>
</clipPath>
</defs>
</svg>
