<svg width="23" height="23" viewBox="0 0 23 23" fill="none" xmlns="http://www.w3.org/2000/svg">
<path d="M15.525 14.1835C17.729 12.8415 19.1668 10.4457 19.1668 7.66682C19.1668 3.45009 15.7167 0 11.5 0C7.28327 0 3.83318 3.45009 3.83318 7.66682C3.83318 10.4448 5.27102 12.8415 7.47504 14.1835C3.64186 15.6208 0.766637 18.975 0 23H1.91682C2.87522 18.5915 6.80429 15.3332 11.5 15.3332C16.1957 15.3332 20.1248 18.5915 21.0832 23H23C22.2334 18.8792 19.3586 15.525 15.525 14.1835ZM5.75 7.66682C5.75 4.50438 8.33757 1.91682 11.5 1.91682C14.6624 1.91682 17.2504 4.50438 17.2504 7.66682C17.2504 10.8292 14.6624 13.4168 11.5 13.4168C8.33757 13.4168 5.75 10.8292 5.75 7.66682Z" fill="#575757"/>
</svg>
