<svg width="187" height="26" viewBox="0 0 187 26" fill="none" xmlns="http://www.w3.org/2000/svg">
<path d="M7.30369 25.0449C6.75429 25.0449 6.29163 24.5955 6.29163 24.0618V6.08424H2.01206C1.46266 6.08424 1 5.63481 1 5.1011V2.91009C1 2.37638 1.46266 1.92694 2.01206 1.92694H15.7183C16.2677 1.92694 16.7303 2.37638 16.7303 2.91009V5.07301C16.7303 5.60672 16.2677 6.05615 15.7183 6.05615H11.2652V24.0337C11.2652 24.5674 10.8025 25.0168 10.2531 25.0168H7.30369V25.0449ZM35.0631 25.6348C28.9329 25.6348 25.81 22.573 25.81 16.5056C25.81 12.8258 26.9377 10.1573 29.1642 8.55615C30.957 7.26402 32.9522 7.09548 33.9932 7.09548C36.9715 7.09548 42.0029 8.21908 42.0029 15.691C42.0029 16.9269 41.7138 18.0786 39.6896 18.0786H30.7835C31.1016 20.4944 32.5474 21.7022 35.0631 21.7022C36.2486 21.7022 37.5209 21.4775 38.8222 21C38.9378 20.9719 39.0535 20.9438 39.1692 20.9438C39.574 20.9438 39.9788 21.1966 40.1234 21.5899L40.7595 23.3033C40.933 23.7528 40.7306 24.2584 40.2969 24.5112C38.9378 25.2415 36.5667 25.6348 35.0631 25.6348ZM34.3113 10.7191C31.7956 10.7191 31.0727 12.7977 30.8992 14.5674H37.4342C37.2607 11.8708 36.3354 10.7191 34.3113 10.7191ZM57.5887 25.0449C57.0393 25.0449 56.5766 24.5955 56.5766 24.0618V13.5842C56.5766 11.2809 54.9573 10.9438 54.0031 10.9438C52.297 10.9438 50.9669 11.5899 49.897 12.9382C49.9259 13.191 49.9259 13.4719 49.9259 13.7809V24.0618C49.9259 24.5955 49.4633 25.0449 48.9139 25.0449H46.0512C45.5018 25.0449 45.0391 24.5955 45.0391 24.0618V9.03368C45.0391 8.78087 45.1548 8.52806 45.3283 8.33144C45.5307 8.13481 45.7909 8.05054 46.0512 8.05054H48.0464C48.509 8.05054 48.9139 8.35953 49.0295 8.80896L49.0584 9.39885C49.6946 8.72469 51.5163 7.09548 54.726 7.09548C57.6176 7.09548 61.4634 7.76964 61.4634 13.5842V24.0618C61.4634 24.5955 61.0008 25.0449 60.4514 25.0449H57.5887Z" fill="#5C514E"/>
<path d="M115.797 25.0449C115.247 25.0449 114.785 24.5955 114.785 24.0618V13.5843C114.785 11.2809 113.165 10.9438 112.211 10.9438C110.505 10.9438 109.175 11.5899 108.105 12.9382C108.134 13.191 108.134 13.4719 108.134 13.7809V24.0618C108.134 24.5955 107.671 25.0449 107.122 25.0449H104.259C103.71 25.0449 103.247 24.5955 103.247 24.0618V9.03371C103.247 8.7809 103.363 8.52809 103.536 8.33146C103.739 8.13483 103.999 8.05056 104.259 8.05056H106.254C106.717 8.05056 107.122 8.35955 107.238 8.80899L107.295 9.39887C107.932 8.72472 109.753 7.06741 112.963 7.06741C115.855 7.06741 119.7 7.74157 119.7 13.5562V24.0337C119.7 24.5674 119.238 25.0169 118.688 25.0169H115.797V25.0449Z" fill="#70A62D"/>
<path d="M72.249 25.6348C69.1839 25.6348 64.008 24.427 64.008 16.3932C64.008 13.191 64.9333 10.7472 66.755 9.08988C68.7213 7.3483 71.0924 7.0674 72.3069 7.0674C74.0418 7.0674 75.6322 7.57302 76.8467 8.52808V2.88201C76.8467 2.3483 77.3093 1.89886 77.8587 1.89886H80.7214C81.2708 1.89886 81.7335 2.3483 81.7335 2.88201V24.0337C81.7335 24.2865 81.6178 24.5393 81.4443 24.7359C81.2419 24.9326 80.9817 25.0168 80.7214 25.0168H78.1479C77.6274 25.0168 77.1937 24.6236 77.1358 24.118L77.1069 23.7528C76.2105 24.6236 74.6491 25.6348 72.249 25.6348ZM73.1165 10.8595C71.0346 10.8595 68.8369 12.3202 68.8369 16.3932C68.8369 18.4157 69.3574 21.8146 72.943 21.8146C74.5334 21.8146 76.0949 20.9438 76.8467 19.5955V12.6011C76.0081 11.4494 74.7647 10.8595 73.1165 10.8595Z" fill="#5C514E"/>
<path d="M151.624 25.0449C151.074 25.0449 150.611 24.5955 150.611 24.0618V13.5C150.611 11.8708 150.004 11.0842 148.732 11.0842C146.968 11.0842 146.014 12.0955 145.522 12.9382C145.551 13.191 145.551 13.4719 145.551 13.7809V24.0337C145.551 24.5674 145.089 25.0168 144.539 25.0168H141.619C141.069 25.0168 140.607 24.5674 140.607 24.0337V13.5C140.607 11.8708 139.999 11.0842 138.756 11.0842C137.368 11.0842 136.269 11.7022 135.517 12.9382C135.546 13.191 135.546 13.4719 135.546 13.7809V24.0337C135.546 24.5674 135.084 25.0168 134.534 25.0168H131.671C131.122 25.0168 130.659 24.5674 130.659 24.0337V9.03368C130.659 8.78087 130.775 8.52806 130.949 8.33144C131.151 8.13481 131.411 8.05054 131.671 8.05054H133.696C134.158 8.05054 134.592 8.35953 134.679 8.80896L134.737 9.45503C135.893 7.93818 137.628 7.12357 139.71 7.12357C142.11 7.12357 143.787 7.91009 144.713 9.45503C145.927 7.882 147.604 7.12357 149.744 7.12357C151.19 7.12357 155.585 7.12357 155.585 13.3876V24.0618C155.585 24.5955 155.122 25.0449 154.573 25.0449H151.624ZM182.853 25.4663C180.193 25.4663 177.041 24.4269 177.041 19.455V2.91009C177.041 2.37638 177.503 1.92694 178.053 1.92694H180.915C181.465 1.92694 181.928 2.37638 181.928 2.91009V19.118C181.928 20.5786 182.448 21.4213 183.373 21.4213C183.46 21.4213 183.576 21.4213 183.72 21.3932H183.836C184.241 21.3932 184.617 21.646 184.79 22.0112L185.571 23.8371C185.773 24.3427 185.542 24.9045 185.022 25.1292C184.414 25.3539 183.691 25.4663 182.853 25.4663Z" fill="#70A62D"/>
<path d="M19.4774 25.045C18.928 25.045 18.4654 24.5955 18.4654 24.0618V9.03371C18.4654 8.50001 18.928 8.05057 19.4774 8.05057H22.369C22.9184 8.05057 23.3811 8.50001 23.3811 9.03371V24.0618C23.3811 24.5955 22.9184 25.045 22.369 25.045H19.4774Z" fill="#5C514E"/>
<path d="M123.72 25.0449C123.17 25.0449 122.708 24.5955 122.708 24.0618V9.03371C122.708 8.5 123.17 8.05056 123.72 8.05056H126.611C127.161 8.05056 127.623 8.5 127.623 9.03371V24.0618C127.623 24.5955 127.161 25.0449 126.611 25.0449H123.72ZM91.7096 25.6348C87.4011 25.6348 84.6252 23.4719 84.6252 20.1292C84.6252 17.9101 85.8396 14.2303 93.994 14.2303C94.2542 14.2303 94.6012 14.2303 95.3819 14.2584V12.6854C95.3819 12.1798 95.3819 11 92.7795 11C91.6807 11 90.6975 11.1685 89.7433 11.5056C89.6277 11.5337 89.512 11.5618 89.3963 11.5618C89.1072 11.5618 88.818 11.4494 88.6445 11.2247L87.1698 9.5955C86.9674 9.37078 86.8806 9.0618 86.9385 8.75281C86.9963 8.44382 87.1987 8.19101 87.4879 8.05056C88.7602 7.43258 90.6975 7.06741 92.8084 7.06741C95.5554 7.06741 100.182 7.76966 100.182 12.5449V24.0337C100.182 24.5674 99.7194 25.0169 99.17 25.0169H96.6543C96.1916 25.0169 95.8157 24.736 95.6711 24.3146C94.341 25.2135 93.0108 25.6348 91.7096 25.6348ZM94.3988 17.4607C91.0735 17.4607 89.5698 18.2191 89.5698 19.8764C89.5698 21.2809 90.4373 21.9551 92.2012 21.9551C93.5892 21.9551 94.6012 21.5337 95.3819 21.1124V17.4888C94.9193 17.4607 94.6301 17.4607 94.3988 17.4607ZM165.648 25.6348C161.339 25.6348 158.563 23.4719 158.563 20.1292C158.563 17.9101 159.778 14.2303 167.932 14.2303C168.193 14.2303 168.54 14.2303 169.32 14.2584V12.6854C169.32 12.1798 169.32 11 166.718 11C165.619 11 164.636 11.1685 163.682 11.5056C163.566 11.5337 163.45 11.5618 163.335 11.5618C163.045 11.5618 162.756 11.4494 162.583 11.2247L161.108 9.5955C160.906 9.37078 160.819 9.0618 160.877 8.75281C160.935 8.44382 161.137 8.19101 161.426 8.05056C162.698 7.43258 164.636 7.06741 166.747 7.06741C169.494 7.06741 174.12 7.76966 174.12 12.5449V24.0337C174.12 24.5674 173.658 25.0169 173.108 25.0169H170.621C170.188 25.0169 169.783 24.736 169.638 24.3146C168.279 25.2135 166.949 25.6348 165.648 25.6348ZM168.337 17.4607C165.012 17.4607 163.508 18.2191 163.508 19.8764C163.508 21.2809 164.376 21.9551 166.139 21.9551C167.527 21.9551 168.511 21.5337 169.32 21.1124V17.4888C168.858 17.4607 168.568 17.4607 168.337 17.4607Z" fill="#70A62D"/>
<path d="M20.9231 6.58988C19.5641 6.58988 18.4364 5.55055 18.4364 4.25842C18.4364 2.99437 19.5641 1.95505 20.9231 1.95505C22.2822 1.95505 23.4099 3.02246 23.4099 4.25842C23.4099 5.52246 22.3111 6.58988 20.9231 6.58988Z" fill="#5C514E"/>
<path d="M125.165 6.61799C123.806 6.61799 122.679 5.57866 122.679 4.28653C122.679 3.02248 123.806 1.98315 125.165 1.98315C126.524 1.98315 127.652 3.05057 127.652 4.28653C127.652 5.57866 126.524 6.61799 125.165 6.61799Z" fill="#70A62D"/>
</svg>
