<svg width="24" height="22" viewBox="0 0 24 22" fill="none" xmlns="http://www.w3.org/2000/svg">
<g clip-path="url(#clip0_1_25)">
<path d="M0 0H23.6346V2.55509H0V0ZM0 4.79079H23.6346V7.34587H0V4.79079ZM0 9.58158H23.6346V12.1367H0V9.58158ZM4.4714 14.8067H5.69785V21.1561H4.72052V16.2887L4.76524 16.5697L3.37272 20.3385H2.55509L1.14979 16.6847L1.1945 16.2887V21.1306H0.217182V14.8067H1.41807L2.95751 19.0418L4.4714 14.8067ZM8.22738 15.8096V17.5087H10.8719V18.5052H8.22738V20.1596H11.351V21.1561H7.18618V14.8067H11.351V15.8096H8.22738ZM12.5263 14.8067H13.6633L16.3973 19.6933L16.2951 19.8083V14.8067H17.3043V21.1561H16.1609L13.4142 16.3398L13.5228 16.2248V21.1561H12.5263V14.8067ZM19.7444 20.9453C19.4057 20.7599 19.1349 20.4712 18.9715 20.1213C18.7833 19.7223 18.6914 19.2847 18.7032 18.8438V14.8067H19.7444V18.8885C19.7228 19.2402 19.8397 19.5865 20.0702 19.853C20.1882 19.9695 20.3294 20.0598 20.4845 20.1181C20.6397 20.1764 20.8054 20.2015 20.9709 20.1916C21.1383 20.2017 21.306 20.1768 21.4633 20.1185C21.6205 20.0602 21.7639 19.9698 21.8843 19.853C22.1148 19.5865 22.2318 19.2402 22.2101 18.8885V14.8067H23.2513V18.8438C23.2671 19.2837 23.1796 19.7213 22.9958 20.1213C22.825 20.4634 22.5528 20.7444 22.2165 20.9262C21.835 21.1194 21.4111 21.2139 20.9837 21.2008C20.5557 21.2209 20.1296 21.133 19.7444 20.9453Z" fill="#575757"/>
</g>
<defs>
<clipPath id="clip0_1_25">
<rect width="23.6346" height="21.22" fill="white"/>
</clipPath>
</defs>
</svg>
