<svg width="20" height="20" viewBox="0 0 20 20" fill="none" xmlns="http://www.w3.org/2000/svg">
<g clip-path="url(#clip0_1_27)">
<path d="M19.5583 17.8896L13.149 11.4803C14.0426 10.2643 14.528 8.79659 14.5355 7.28765C14.5404 5.84713 14.1174 4.4376 13.3202 3.23779C12.5229 2.03799 11.3874 1.10197 10.0574 0.548426C8.72749 -0.00511469 7.26313 -0.151237 5.85005 0.128588C4.43696 0.408413 3.1388 1.10158 2.12019 2.12019C1.10158 3.1388 0.408414 4.43696 0.128588 5.85004C-0.151237 7.26313 -0.00511469 8.72749 0.548426 10.0574C1.10197 11.3874 2.03799 12.5229 3.23779 13.3202C4.4376 14.1174 5.84713 14.5404 7.28765 14.5355C8.80227 14.5315 10.2764 14.0459 11.4969 13.149L17.9062 19.5583L19.5583 17.8896ZM2.23161 7.28765C2.2201 6.28926 2.50543 5.30995 3.05139 4.47398C3.59735 3.63801 4.37934 2.98306 5.29813 2.59223C6.21692 2.20141 7.2311 2.09232 8.21199 2.27881C9.19287 2.46531 10.0963 2.93897 10.8075 3.63972C11.5188 4.34046 12.0058 5.23669 12.2069 6.21469C12.408 7.19269 12.314 8.20838 11.9369 9.13289C11.5598 10.0574 10.9166 10.849 10.0888 11.4074C9.26106 11.9657 8.28611 12.2656 7.28765 12.269C5.95759 12.2756 4.67901 11.7553 3.73153 10.8218C2.78405 9.88835 2.24476 8.61766 2.23161 7.28765Z" fill="#575757"/>
</g>
<defs>
<clipPath id="clip0_1_27">
<rect width="19.56" height="19.56" fill="white"/>
</clipPath>
</defs>
</svg>
